# xmcd CD database file
#
# Track frame offsets:
#	183
#	11938
#	22903
#	35515
#	47430
#	61285
#	79568
#	96358
#	108585
#	118883
#	129760
#	143223
#	155233
#	171333
#	187358
#	204548
#	220368
#	237140
#
# Disc length: 3349 seconds
#
# Revision: 2
# Processed by: cddbd v1.4b41PL1 Copyright (c) Steve Scherf et al.
# Submitted via: Feurio! 1.57ß - http://www.feurio.com
#
DISCID=050d1312,f20d1312
DTITLE=Johnny Cash - The Country Store Collection
DYEAR=1900
DGENRE=
TTITLE0=A Thing Called Love
TTITLE1=Long Black Veil
TTITLE2=Jackson
TTITLE3=Ring Of Fire
TTITLE4=Don't Take Your Guns To Town
TTITLE5=One Piece At A Time
TTITLE6=A Boy Named Sue
TTITLE7=Folsom Prison Blues
TTITLE8=Busted
TTITLE9=Daddy Sang Bass
TTITLE10=Let There Be Country
TTITLE11=What Is Truth
TTITLE12=Johnny 99
TTITLE13=The Greatest Love Affair
TTITLE14=(Ghost) Riders In The Sky
TTITLE15=Song Of The Patriot
TTITLE16=The Gambler
TTITLE17=It'll Be Her
EXTD=
EXTT0=(p) 1972
EXTT1=(p) 1972
EXTT2=(p) 1967
EXTT3=(p) 1963
EXTT4=(p) 1967
EXTT5=(p) 1976
EXTT6=(p) 1969
EXTT7=(p) 1968
EXTT8=(p) 1970
EXTT9=(p) 1969
EXTT10=(p) 1976
EXTT11=(p) 1972
EXTT12=(p) 1983
EXTT13=(p) 1981
EXTT14=(p) 1979
EXTT15=(p) unknown
EXTT16=(p) 1978
EXTT17=(p) 1978
PLAYORDER=
